<svg xmlns="http://www.w3.org/2000/svg" viewBox="0 0 1183 540" role="img" aria-label="FundRise"><g fill="#151515"><path fill-rule="evenodd" d="M561.8 83 561 83.8 561 536 562.8 537.8 607 537.8 607.8 537 607.8 511.8 608.8 510 607.8 507 607.8 498.8 608.8 497 608.8 488.8 607.8 487 607.8 419.8 608.8 418 608.8 406.8 607.8 405 607.8 356.8 608.8 355 608.2 352.8 609 351.2 612.2 349 622.8 343.8 629 342.8 630.8 343.8 633 343.8 634.5 344.8 637.8 348.2 640 353.8 640 508 641 509.8 641 519 642 520.8 642 526 643 527.8 643 532 644 533.8 644 537 644.8 537.8 694 537.8 694.8 536.8 693.8 535 693.8 530.8 692.8 529 692.8 525.8 690.8 520 690.8 515.8 689.8 514 689.8 507.8 688.8 506 688.8 497.8 687.8 496 687.8 349.8 686.8 348 686.8 341.8 685.8 340 685.8 337.8 683.8 331.8 678.8 323.2 671.5 316.2 665 313 660.2 311.5 662.2 308.8 665.5 306.8 673.8 298.5 677.5 292.5 682.8 282 684.8 276 684.8 273.8 685.8 272 685.8 267.8 686.8 266 686.8 258.8 687.8 257 687.8 132.8 686.8 131 686.8 123.8 685.8 122 685.8 119.8 681.5 108.2 674.8 98.2 671.5 95 663.5 89.2 657 86 651 84 647.8 84 646 83ZM630 127.8 633.5 129 637 132.2 640 138.8 640 251 639 252.8 639 258 638 259.8 638 263 636 267.8 636 270 629.8 282.5 619.5 295 611.5 300.8 609.2 301.5 607.8 298 607.8 285.8 608.8 284 607.8 282 607.8 274.8 608.8 273 608.8 267.8 607.8 266 607.8 217.8 608.8 216 608.8 213.8 607.8 212 607.8 151.8 608.8 150 608.8 133.8 607.8 132 607.8 128.8 608.8 127.8ZM268.8 83 268 83.8 268 536 269.8 537.8 313 537.8 313.8 537 313.8 497.8 312.8 496 312.8 302.8 311.8 301 311.8 273.5 310.8 272 312 270.8 313 271.8 313 277.2 314 278.8 314 285 315 286.8 315 292 316 293.8 316 298 317 299.8 317 305 318 306.8 318 310 319 311.8 319 316 320 317.8 320 322 321 323.8 321 328 322 329.8 322 334 323 335.8 323 340 324 341.8 324 346 325 347.8 325 352 326 353.8 326 358 327 359.8 327 364 328 365.8 328 370 329 371.8 329 376 330 377.8 330 382 331 383.8 331 388 332 389.8 332 394 333 395.8 333 399 334 400.8 334 405 335 406.8 335 411 336 412.8 336 416 337 417.8 337 422 338 423.8 338 428 339 429.8 339 433 340 434.8 340 439 341 440.8 341 445 342 446.8 342 450 343 451.8 343 456 344 457.8 344 462 345 463.8 345 468 346 469.8 346 473 347 474.8 347 479 348 480.8 348 486 349 487.8 349 491 350 492.8 350 497 351 498.8 351 503 352 504.8 352 508 353 509.8 353 514 354 515.8 354 519 355 520.8 355 525 356 526.8 356 531 357 532.8 357 537 357.8 537.8 405 537.8 406.8 536 406.8 83.8 406 83 360.8 83 360 83.8 360 270 361 271.8 361 311 362 312.8 362 348.2 363 349.8 363 351.8 362.2 352.2 360.8 350 360.8 344.5 359.8 343 359.8 337.8 358.8 336 358.8 330.8 357.8 329 357.8 324.8 356.8 323 356.8 316.8 355.8 315 355.8 310.8 354.8 309 354.8 304.8 353.8 303 353.8 297.8 352.8 296 352.8 290.8 351.8 289 351.8 284.8 350.8 283 350.8 278.8 349.8 277 349.8 271.8 348.8 270 348.8 265.8 347.8 264 347.8 259.8 346.8 258 346.8 253.8 345.8 252 345.8 247.8 344.8 246 344.8 240.8 343.8 239 343.8 234.8 342.8 233 342.8 229.8 341.8 228 341.8 223.8 340.8 222 340.8 217.8 339.8 216 339.8 211.8 338.8 210 338.8 206.8 337.8 205 337.8 200.8 336.8 199 336.8 194.8 335.8 193 335.8 189.8 334.8 188 334.8 183.8 333.8 182 333.8 178.8 332.8 177 332.8 172.8 331.8 171 331.8 167.8 330.8 166 330.8 161.8 329.8 160 329.8 156.8 328.8 155 328.8 150.8 327.8 149 327.8 144.8 326.8 143 326.8 138.8 325.8 137 325.8 133.8 324.8 132 324.8 127.8 323.8 126 323.8 121.8 322.8 120 322.8 115.8 321.8 114 321.8 110.8 320.8 109 320.8 104.8 319.8 103 319.8 98.8 318.8 97 318.8 93.8 317.8 92 317.8 87.8 316.8 86 316.8 83.8 316 83ZM126.8 83 126 83.8 126 496 127 497.8 127 501 128 502.8 128 505 129 508 134.2 518.5 138 522.2 140.2 525.5 142.5 526.8 145.2 529.5 152.8 533.8 164.8 537.8 215 537.8 216.8 536.8 219 536.8 228 533.8 238.5 526.8 243.8 521.5 246.5 517.5 250.8 509 252.8 503 252.8 500.8 253.8 499 253.8 83.8 253 83 207.8 83 207 83.8 207 485 205 489.5 202.5 491.8 198 494 183.8 494 180.2 492.8 176.2 490 173.8 486 173.8 83.8 173 83ZM1060.8 82 1060 82.8 1060 537 1060.8 537.8 1180 537.8 1180.8 537 1180.8 493.2 1110.8 493.2 1108.2 491.8 1106.8 490 1106.8 358.8 1108.8 356.8 1144 356.8 1144.8 356 1144.8 313.2 1111.8 313.2 1110 312 1107.8 312 1106.8 311 1106.8 128.8 1108.8 126.8 1180.5 126.8 1180.5 83.8 1180 83 1177.8 83 1176 82ZM737 88.5 736 89.8 736 91 732.8 98.5 725.8 109.5 722 114.5 707 129.8 707 145 708 146.8 708 149 712 155.8 712 160 713 161.8 713 537.5 990 537.5 991.8 536.8 997 536.8 1006 533.8 1012.5 530.5 1020.5 524.8 1023.8 521.5 1029.5 513.5 1035.8 500 1035.8 497.8 1037.8 492 1037.8 483.8 1038.8 482 1038.8 472.8 1037.8 471 1037.8 462.8 1036.8 461 1036.8 457.8 1035.8 456 1035.8 453.8 1034.8 450.8 1029.5 440.2 1026.8 436.2 1024.8 434.5 1021.5 430 1018.2 428 1015.5 425.2 1008 421 1006.8 421 1000 418 997.8 418 996 417 988.8 417 987 416 976.8 416 975 417 897.8 417 896 416 894 417 880.8 417 879 416 832.8 416 829 413.5 826.8 409 826.8 403.8 829 399.2 832.8 396.8 988 396.8 989.8 395.8 996 395.8 997.8 394.8 1000 394.8 1012.5 389.5 1021.5 382.8 1029.5 372.5 1034.8 362 1036.8 356 1036.8 352.8 1037.8 351 1037.8 342.8 1038.8 341 1038.8 333.8 1037.8 332 1037.8 322.8 1036.8 321 1036.8 318.8 1035.8 317 1035.8 314.8 1034.8 311.8 1027.5 298.2 1017.5 288 1013.5 285.2 1003 280 1000.8 280 995 278 988.8 278 987 277 832.8 277 829.2 275 826.8 271 826.8 264.8 828 262.2 830.2 259.8 834.8 257.8 995 257.8 996.8 256.8 999 256.8 1005 254.8 1013.5 250.5 1017.5 247.8 1026.8 238.5 1033.8 227 1036.8 218 1036.8 215.8 1037.8 214 1037.8 205.8 1038.8 204 1038.8 198.8 1037.8 197 1037.8 187.8 1036.8 186 1036.8 182.8 1034.8 176.8 1028.5 165.2 1024.8 160.2 1021.2 158 1018.5 155 1014.5 152.2 1006 148 1003 147 1000.8 147 999 146 996.8 146 995 145 833.8 145 830.2 143 827 139.5 827 133.8 828.8 130.2 832.8 127.8 1037 127.8 1038.8 126 1038.8 84.2 1037 83 1002.8 83 1001 82 845.8 82 844 83 838.8 83 837 82 832.8 82 831 83 823.8 83 822 84 819.8 84 813.8 86 805.2 90.2 797.2 96 794 99.2 788.2 107.2 784 115.8 782 121.8 782 125 781 126.8 781 147 782 148.8 782 152 785 161 788.2 167.5 795.2 176.5 801.2 181.5 812.8 187.8 818.8 189.8 821 189.8 822.8 190.8 827 190.8 828.8 191.8 986 191.8 989.5 193.8 991.8 196.2 991.8 203 990 206.5 986 209 826.8 209 825 210 821.8 210 820 211 817.8 211 814.8 212 803.2 218.2 799.5 222 796.2 224 794 227.5 792 229.2 789.2 233.2 785 241.8 783 247.8 783 250 782 251.8 782 256 781 257.8 781 281 782 282.8 782 285 783 286.8 783 289 785 295 788.2 301.5 793 308.5 800.2 315.8 804.2 318.5 814.8 323.8 820.8 325.8 823 325.8 824.8 326.8 985 326.8 989.5 329 990.8 330.2 993 334.8 993 338 991.8 341.5 988.5 345 985 347 825.8 347 824 348 817.8 349 806.2 354.2 802.2 357 793 366.2 788.2 373.2 785 379.8 783 385.8 783 388 782 389.8 782 393 781 394.8 781 418 782 419.8 782 423 783 424.8 783 427 785 433 789.2 441.5 792 445.5 796 449.2 797.2 451.5 806.2 458.5 814.8 462.8 820.8 464.8 823 464.8 824.8 465.8 921 465.8 922.8 466.8 924.8 465.8 929 465.8 930.8 466.8 933.8 465.8 944 465.8 945.8 466.8 961 466.8 962.8 465.8 984 465.8 989.5 468.8 993 474.8 993 479 990.8 483.5 988.5 485.8 986 487 781.8 487 780 488 761.8 488 760 486.5 760 167.8 760.8 166 760.8 161.8 761.8 160 761.8 157.8 763.8 152 763.8 146.8 764.8 145 764.8 129.8 751 115.5 745 106.5 738.8 94 737.8 91 737.8 88.8ZM423.8 82 421 83 421 537 421.8 537.8 503 537.8 504.8 536.8 509 536.8 518 533.8 527.5 528.5 536.8 519.5 539.5 515.5 542.8 509 544.8 503 544.8 500.8 545.8 499 545.8 494.8 546.8 493 546.8 128.8 545.8 127 545.8 122.8 544.8 121 544.8 118.8 542.8 112.8 538.5 104.2 535.8 100.2 527.5 92.2 516 86 510 84 506.8 84 505 83 496.8 83 495 82ZM469.8 127.8 490 127.8 495.5 130.8 497.8 133.2 499 136.8 499 483 496.8 487.5 495.5 488.8 491 491 470.8 491 467.8 488 467.8 331.8 468.8 330 468.8 309.8 467.8 308 467.8 302.8 468.8 301 468.8 273.8 467.8 272 467.8 262.8 468.8 261 468.8 256.8 467.8 255 467.8 131.8 468.2 129ZM107 82 3.8 82 2 83.8 2 537 2.8 537.8 48 537.8 48.8 537 48.8 358.2 49.8 357.8 54 357.8 55.8 356.8 107 356.8 107.8 356 107.8 313.2 49.8 313.2 48.8 312 48.8 128.8 50.8 126.8 107.5 126.8 107.5 82.8Z"/><path d="M737 2.5 736 3.8 735 8 730.8 16.5 725 24.5 717.5 32 712.5 35.8 699.2 42.8 698.8 43.5 702.8 45.8 706.5 47 714.5 52 725 62.2 729.8 69.2 736 81.8 736.2 83.5 737.5 84.2 738.8 79.8 743 71.2 749.8 61.2 756.2 54.8 761.2 51 773.5 44.5 774.2 43.2 760.2 35.8 755.2 32 749.8 26.5 743 16.5 739.8 10 737.8 3Z"/></g></svg>
